Coordinates
version=1
nRows=12
nColumns=28
inDegrees=yes

Units are S.I. units (second, meters, Newtons, ...)
Angles are in degrees.

endheader
time	pelvis_tilt	pelvis_list	pelvis_rotation	pelvis_tx	pelvis_ty	pelvis_tz	hip_flexion_r	hip_adduction_r	hip_rotation_r	knee_angle_r	ankle_angle_r	subtalar_angle_r	mtp_angle_r	hip_flexion_l	hip_adduction_l	hip_rotation_l	knee_angle_l	socket_flexion	socket_adduction	socket_rotation	socket_tx	socket_ty	socket_tz	foot_flex	lumbar_extension	lumbar_bending	lumbar_rotation
      0.95000000	      3.39089102	     -4.30089142	     -2.54982893	      0.43195974	      1.03259992	      0.31461201	      0.29257488	      9.86040848	      0.43103087	    -15.20513578	     10.75901367	    -12.81992972	      3.10990325	     13.82543003	    -11.26827566	      0.42138823	    -47.47914466	      9.86066308	      8.77204553	     13.71593872	      0.07765784	      0.03687139	     -0.04052642	     -0.25239578	    -11.32829858	      3.23510407	      6.01876383
      0.95416667	      3.33657086	     -4.19470441	     -2.79650316	      0.43659327	      1.03324495	      0.31513614	     -0.10753598	      9.70090906	      0.46201163	    -14.90580118	     10.71924613	    -12.58538724	      3.15544885	     14.39012121	    -11.20584583	      0.54813026	    -47.24428609	      9.59981743	      8.86654702	     13.65982554	      0.07673817	      0.03658748	     -0.04119124	     -0.24988269	    -11.29992250	      3.06399951	      6.17128207
      0.95833333	      3.25842967	     -4.07804393	     -3.00738811	      0.44121047	      1.03394981	      0.31560730	     -0.50392046	      9.55225788	      0.54267026	    -14.53950621	     10.66209085	    -12.29276166	      3.21043938	     14.95601400	    -11.09840529	      0.70779654	    -46.96961792	      9.30977637	      8.93840644	     13.61598466	      0.07554229	      0.03625997	     -0.04162000	     -0.24569511	    -11.25752916	      2.90738389	      6.35824346
      0.96250000	      3.18337583	     -3.97751001	     -3.22701221	      0.44586605	      1.03454290	      0.31611680	     -0.89750112	      9.41319542	      0.59695604	    -14.20706306	     10.60250050	    -12.01768032	      3.26573701	     15.49305103	    -11.02049846	      0.85170121	    -46.68365495	      9.00989966	      8.99453895	     13.55380438	      0.07432429	      0.03579877	     -0.04206485	     -0.24197402	    -11.20892873	      2.76304748	      6.53589791
      0.96666667	      3.10114658	     -3.89537232	     -3.45143438	      0.45044966	      1.03508171	      0.31643290	     -1.27135181	      9.26647265	      0.65484106	    -13.87172422	     10.53951494	    -11.73671278	      3.32691825	     16.01640385	    -10.93571916	      1.00013398	    -46.36341846	      8.68100037	      9.03605946	     13.49851059	      0.07307092	      0.03520636	     -0.04234705	     -0.23390898	    -11.17012820	      2.63643930	      6.71706960
      0.97083333	      3.13159089	     -3.89081713	     -3.63750495	      0.45472110	      1.03557651	      0.31685202	     -1.56823041	      9.21948014	      0.61822639	    -13.94957937	     10.53633791	    -11.73000487	      3.32912999	     16.44694953	    -10.94992250	      1.02829765	    -46.03281340	      8.37424096	      8.94677327	     13.45795797	      0.07196757	      0.03443777	     -0.04246040	     -0.18832664	    -11.25175824	      2.63177275	      6.72384858
      0.97500000	      2.97580839	     -3.74190155	     -3.87314639	      0.45956799	      1.03612124	      0.31738515	     -2.03796505	      9.03438611	      0.77648825	    -13.24811256	     10.45214314	    -11.28314727	      3.40106484	     17.02574620	    -10.83929894	      1.21601164	    -45.69546205	      8.02063362	      9.05967150	     13.45354755	      0.07043659	      0.03425864	     -0.04291948	     -0.22525034	    -11.14141000	      2.40111615	      6.96661592
      0.97916667	      2.86532578	     -3.68459925	     -4.09237191	      0.46430124	      1.03653563	      0.31765513	     -2.40566589	      8.91189102	      0.84110364	    -12.87973091	     10.34278518	    -10.94770681	      3.47652535	     17.46253374	    -10.74935885	      1.35430521	    -45.29434241	      7.62992676	      9.02163156	     13.35689212	      0.06870015	      0.03318184	     -0.04277269	     -0.20639753	    -11.04416900	      2.34071825	      7.20121256
      0.98333333	      2.85315506	     -3.67941762	     -4.34316436	      0.46850438	      1.03693227	      0.31804294	     -2.67861789	      8.84925448	      0.78821904	    -12.86876253	     10.34066926	    -10.91746817	      3.48724276	     17.90560687	    -10.74535992	      1.39931329	    -44.94192780	      7.30106688	      8.94767150	     13.32859469	      0.06745474	      0.03260100	     -0.04260188	     -0.16468344	    -11.17150670	      2.33088984	      7.22638679
      0.98750000	      2.70696736	     -3.58287478	     -4.50495786	      0.47341054	      1.03726884	      0.31849782	     -3.11358480	      8.71870687	      0.95922298	    -12.29342226	     10.23639989	    -10.46236404	      3.58960732	     18.34287768	    -10.67176901	      1.56193634	    -44.48747655	      6.85923482	      8.94455268	     13.28208437	      0.06534538	      0.03155757	     -0.04274191	     -0.18808348	    -10.99404803	      2.15519518	      7.49333048
      0.99166667	      2.69683791	     -3.58125451	     -4.75564980	      0.47761711	      1.03757256	      0.31880800	     -3.38857168	      8.64717754	      0.90674467	    -12.28442422	     10.23342239	    -10.43266875	      3.60117494	     18.77830691	    -10.67242648	      1.60613708	    -44.12112923	      6.51902007	      8.85088407	     13.24737791	      0.06412874	      0.03110804	     -0.04260732	     -0.14371062	    -11.11179422	      2.16308126	      7.52081716
      0.99583333	      2.54804807	     -3.51018179	     -4.92176752	      0.48264165	      1.03781110	      0.31917318	     -3.83636288	      8.53077052	      1.06539566	    -11.69797471	     10.15341390	    -10.01250951	      3.69616021	     19.15888464	    -10.61712544	      1.73090549	    -43.62261151	      6.04990460	      8.78593928	     13.20795640	      0.06190797	      0.02991900	     -0.04259915	     -0.17455042	    -10.89938046	      2.05549555	      7.76252764
